<svg width="33" height="30" viewBox="0 0 33 30" fill="none" xmlns="http://www.w3.org/2000/svg">
<path d="M29.9698 2.53369H3.03064C2.38279 2.53369 1.85938 2.98491 1.85938 3.5434V26.7668C1.85938 27.3253 2.38279 27.7765 3.03064 27.7765H29.9698C30.6177 27.7765 31.1411 27.3253 31.1411 26.7668V3.5434C31.1411 2.98491 30.6177 2.53369 29.9698 2.53369ZM28.7985 25.7571H22.0601V18.0012H25.8667L26.4377 14.1927H22.0601V11.7599C22.0601 10.6556 22.4151 9.9046 24.2489 9.9046H26.5878V6.49682C26.1815 6.44949 24.7943 6.34536 23.1764 6.34536C19.8017 6.34536 17.4921 8.12182 17.4921 11.3813V14.1896H13.6782V17.9981H17.4958V25.7571H4.20191V4.55312H28.7985V25.7571Z" fill="#2D8853"/>
</svg>
