<svg width="31" height="28" viewBox="0 0 31 28" fill="none" xmlns="http://www.w3.org/2000/svg">
<path fill-rule="evenodd" clip-rule="evenodd" d="M9.64213 1.29412C11.1573 1.23205 11.6403 1.21826 15.4998 1.21826C19.3593 1.21826 19.8424 1.2332 21.3563 1.29412C22.8701 1.35504 23.9034 1.56999 24.8076 1.88148C25.7544 2.19987 26.6133 2.69757 27.3238 3.34125C28.0471 3.97228 28.6051 4.7355 28.9616 5.57918C29.3129 6.38378 29.5532 7.30332 29.6229 8.64815C29.6927 9.99872 29.7082 10.4286 29.7082 13.8619C29.7082 17.2964 29.6914 17.7263 29.6229 19.0746C29.5545 20.4194 29.3129 21.339 28.9616 22.1436C28.6051 22.9873 28.0462 23.7518 27.3238 24.3838C26.6133 25.0275 25.7544 25.524 24.8076 25.8413C23.9034 26.1539 22.8701 26.3677 21.3588 26.4298C19.8424 26.4918 19.3593 26.5056 15.4998 26.5056C11.6403 26.5056 11.1573 26.4907 9.64213 26.4298C8.13088 26.3688 7.09755 26.1539 6.19338 25.8413C5.24519 25.524 4.38611 25.0266 3.67592 24.3838C2.95308 23.7524 2.3937 22.9882 2.0368 22.1447C1.68675 21.3401 1.4465 20.4206 1.37675 19.0757C1.307 17.7252 1.2915 17.2953 1.2915 13.8619C1.2915 10.4275 1.3083 9.99757 1.37675 8.65045C1.44521 7.30332 1.68675 6.38378 2.0368 5.57918C2.39423 4.7356 2.95403 3.9715 3.67721 3.3401C4.38639 2.697 5.24461 2.19923 6.19209 1.88148C7.09625 1.56999 8.12959 1.35619 9.64084 1.29412H9.64213ZM21.2413 3.56999C19.743 3.50907 19.2935 3.49642 15.4998 3.49642C11.7062 3.49642 11.2567 3.50907 9.75838 3.56999C8.37242 3.62631 7.62067 3.83206 7.1195 4.00562C6.45688 4.2355 5.98284 4.50792 5.48555 4.95045C5.01415 5.35855 4.65136 5.85537 4.4238 6.40447C4.22875 6.85045 3.99755 7.51941 3.93425 8.75274C3.8658 10.0861 3.85159 10.4861 3.85159 13.8619C3.85159 17.2378 3.8658 17.6378 3.93425 18.9711C3.99755 20.2045 4.22875 20.8734 4.4238 21.3194C4.65113 21.8677 5.01409 22.3654 5.48555 22.7734C5.94409 23.193 6.50338 23.516 7.1195 23.7183C7.62067 23.8918 8.37242 24.0976 9.75838 24.1539C11.2567 24.2148 11.7049 24.2275 15.4998 24.2275C19.2948 24.2275 19.743 24.2148 21.2413 24.1539C22.6273 24.0976 23.379 23.8918 23.8802 23.7183C24.5428 23.4884 25.0168 23.216 25.5141 22.7734C25.9856 22.3654 26.3486 21.8677 26.5759 21.3194C26.7709 20.8734 27.0021 20.2045 27.0654 18.9711C27.1339 17.6378 27.1481 17.2378 27.1481 13.8619C27.1481 10.4861 27.1339 10.0861 27.0654 8.75274C27.0021 7.51941 26.7709 6.85045 26.5759 6.40447C26.3176 5.81481 26.0114 5.39297 25.5141 4.95045C25.0555 4.53099 24.4972 4.20816 23.8802 4.00562C23.379 3.83206 22.6273 3.62631 21.2413 3.56999V3.56999ZM13.685 17.7596C14.6986 18.1351 15.8271 18.1858 16.878 17.903C17.9288 17.6202 18.8367 17.0216 19.4467 16.2093C20.0566 15.3971 20.3307 14.4216 20.2222 13.4494C20.1137 12.4773 19.6293 11.5688 18.8517 10.8792C18.356 10.4384 17.7567 10.1008 17.0968 9.89085C16.4369 9.68089 15.7329 9.60373 15.0355 9.66495C14.3381 9.72616 13.6646 9.92421 13.0635 10.2448C12.4624 10.5655 11.9487 11.0007 11.5594 11.5192C11.17 12.0378 10.9147 12.6266 10.8118 13.2435C10.7088 13.8604 10.7609 14.4899 10.9642 15.0867C11.1675 15.6835 11.517 16.2328 11.9874 16.695C12.4579 17.1572 13.0377 17.5208 13.685 17.7596ZM10.3358 9.26654C11.0139 8.66306 11.819 8.18436 12.7051 7.85776C13.5911 7.53116 14.5408 7.36306 15.4998 7.36306C16.4589 7.36306 17.4086 7.53116 18.2946 7.85776C19.1807 8.18436 19.9858 8.66306 20.6639 9.26654C21.3421 9.87001 21.88 10.5864 22.247 11.3749C22.6141 12.1634 22.803 13.0085 22.803 13.8619C22.803 14.7154 22.6141 15.5605 22.247 16.349C21.88 17.1374 21.3421 17.8539 20.6639 18.4573C19.2943 19.6761 17.4367 20.3608 15.4998 20.3608C13.5629 20.3608 11.7054 19.6761 10.3358 18.4573C8.96615 17.2386 8.19672 15.5856 8.19672 13.8619C8.19672 12.1383 8.96615 10.4853 10.3358 9.26654V9.26654ZM24.4227 8.33091C24.5907 8.18984 24.7253 8.02019 24.8183 7.83203C24.9114 7.64386 24.9611 7.44099 24.9644 7.23542C24.9678 7.02986 24.9248 6.82579 24.8379 6.63529C24.7511 6.44478 24.6221 6.27172 24.4588 6.12635C24.2954 5.98098 24.101 5.86626 23.8869 5.78897C23.6728 5.71169 23.4435 5.67341 23.2125 5.6764C22.9815 5.6794 22.7535 5.72361 22.542 5.80642C22.3306 5.88923 22.14 6.00895 21.9814 6.15849C21.6731 6.44933 21.5043 6.83564 21.5109 7.23542C21.5174 7.6352 21.6988 8.01697 22.0165 8.29969C22.3342 8.58241 22.7632 8.74381 23.2125 8.74964C23.6617 8.75547 24.0958 8.60526 24.4227 8.33091V8.33091Z" fill="#7B6B59"/>
</svg>
